<svg width="92" height="77" viewBox="0 0 92 77" fill="none" xmlns="http://www.w3.org/2000/svg">
<path d="M4.55114 62V9.63636H25.2102C29.1818 9.63636 32.5653 10.3949 35.3608 11.9119C38.1563 13.4119 40.2869 15.5 41.7528 18.1761C43.2358 20.8352 43.9773 23.9034 43.9773 27.3807C43.9773 30.858 43.2273 33.9261 41.7273 36.5852C40.2273 39.2443 38.054 41.3153 35.2074 42.7983C32.3778 44.2812 28.9517 45.0227 24.929 45.0227H11.7614V36.1506H23.1392C25.2699 36.1506 27.0256 35.7841 28.4062 35.0511C29.804 34.3011 30.8438 33.2699 31.5256 31.9574C32.2244 30.6278 32.5739 29.1023 32.5739 27.3807C32.5739 25.642 32.2244 24.125 31.5256 22.8295C30.8438 21.517 29.804 20.5028 28.4062 19.7869C27.0085 19.054 25.2358 18.6875 23.0881 18.6875H15.6222V62H4.55114Z" fill="black"/>
<path d="M75.2343 58.7665C72.2942 61.537 69.2023 63.3262 65.9587 64.1341C62.7159 64.918 59.4893 64.7498 56.2789 63.6294C53.0568 62.4966 50.0255 60.4229 47.1849 57.4083C44.4145 54.4682 42.5537 51.3501 41.6026 48.054C40.6515 44.758 40.6274 41.5136 41.5302 38.3208C42.4454 35.1164 44.3048 32.1933 47.1085 29.5514C48.9942 27.7746 51.036 26.4245 53.2339 25.501C55.4326 24.5535 57.7067 24.1086 60.0564 24.1664C62.4184 24.2125 64.7998 24.8259 67.2005 26.0066C69.5895 27.1749 71.9295 28.9748 74.2207 31.4063L76.2722 33.5835L52.1369 56.3256L47.5078 51.4129L64.1811 35.7021C63.1057 34.5608 61.9048 33.7835 60.5787 33.3703C59.2525 32.9571 57.9152 32.9173 56.5668 33.2511C55.2191 33.5607 53.9684 34.2591 52.8147 35.3462C51.6113 36.4801 50.8075 37.7645 50.4031 39.1995C49.9994 40.6104 49.9754 42.0265 50.3311 43.4479C50.675 44.8569 51.3727 46.1317 52.4241 47.2723L56.8252 51.9431C58.1578 53.3573 59.5697 54.3338 61.061 54.8725C62.5647 55.3995 64.0634 55.4863 65.557 55.1327C67.0507 54.7792 68.4613 53.9771 69.7887 52.7263C70.6695 51.8963 71.359 51.0124 71.8571 50.0746C72.3552 49.1368 72.631 48.1743 72.6845 47.1872C72.738 46.2 72.5621 45.218 72.1571 44.2413L79.9447 37.8166C81.2325 39.9289 81.919 42.1861 82.0044 44.5882C82.0905 46.9663 81.5728 49.3746 80.4512 51.8132C79.3304 54.2277 77.5914 56.5455 75.2343 58.7665Z" fill="black"/>
</svg>
